<svg xmlns="http://www.w3.org/2000/svg" data-name="Layer 2" viewBox="0 0 62 62"><path d="M46 27a3.93 3.93 0 0 0-2.24.69A4 4 0 0 0 40 25a3.93 3.93 0 0 0-2.24.69A4 4 0 0 0 34 23a3.91 3.91 0 0 0-2 .56V14a4 4 0 0 0-4.81-3.92A4.09 4.09 0 0 0 24 14.15V37.34l-2.74-3.13a5 5 0 0 0-6.86-.61l-.7.56A2.92 2.92 0 0 0 13 38L20.13 49.5A16.35 16.35 0 0 0 34 58 16 16 0 0 0 50 42V31A4 4 0 0 0 46 27zm2 15A14 14 0 0 1 34 56a14.36 14.36 0 0 1-12.15-7.52L14.74 36.92a.93.93 0 0 1 .21-1.2l.7-.56a3 3 0 0 1 4.11.37l4.49 5.13A1 1 0 0 0 26 40V14.15A2.12 2.12 0 0 1 27.58 12a2 2 0 0 1 1.83.55A2 2 0 0 1 30 14V34a1 1 0 0 0 2 0V27a2 2 0 0 1 4 0v7a1 1 0 0 0 2 0V29a2 2 0 0 1 4 0v5a1 1 0 0 0 2 0V31a2 2 0 0 1 4 0zM28 9a1 1 0 0 0 1-1V5a1 1 0 0 0-2 0V8A1 1 0 0 0 28 9z"/><path d="M34 13a1 1 0 0 0 1 1h3a1 1 0 0 0 0-2H35A1 1 0 0 0 34 13zM18 14h3a1 1 0 0 0 0-2H18a1 1 0 0 0 0 2zM22.29 9.71a1 1 0 0 0 1.42 0 1 1 0 0 0 0-1.42l-2-2a1 1 0 0 0-1.42 1.42zM33 10a1 1 0 0 0 .71-.29l2-2a1 1 0 1 0-1.42-1.42l-2 2a1 1 0 0 0 0 1.42A1 1 0 0 0 33 10z"/></svg>